<svg xmlns="http://www.w3.org/2000/svg" width="2400" height="1350" viewBox="0 0 2400 1350" role="img" aria-label="Modern turf field with data-overlay scoreboard">
  <defs>
    <linearGradient id="g0" x1="0" y1="0" x2="1" y2="1">
      <stop offset="0" stop-color="#05070c"/>
      <stop offset="1" stop-color="#0b1020"/>
    </linearGradient>
    <radialGradient id="goldGlow" cx="30%" cy="24%" r="70%">
      <stop offset="0" stop-color="rgba(212,175,55,.26)"/>
      <stop offset="0.55" stop-color="rgba(212,175,55,.08)"/>
      <stop offset="1" stop-color="rgba(212,175,55,0)"/>
    </radialGradient>
    <radialGradient id="blueGlow" cx="80%" cy="18%" r="70%">
      <stop offset="0" stop-color="rgba(255,140,120,.10)"/>
      <stop offset="1" stop-color="rgba(120,180,255,0)"/>
    </radialGradient>
    <filter id="blur" x="-20%" y="-20%" width="140%" height="140%">
      <feGaussianBlur stdDeviation="8"/>
    </filter>
  </defs>

  <rect width="2400" height="1350" fill="url(#g0)"/>
  <rect width="2400" height="1350" fill="url(#goldGlow)"/>
  <rect width="2400" height="1350" fill="url(#blueGlow)"/>

  <g opacity="0.8"><path d="M 1202.6 958.5 Q 958.7 1075.9 921.0 1261.2" stroke="rgba(243,210,122,0.114)" stroke-width="1.44" fill="none"/><path d="M 748.7 624.6 Q -59.7 821.9 -167.6 1111.9" stroke="rgba(243,210,122,0.134)" stroke-width="1.79" fill="none"/><path d="M 2106.1 521.4 Q 2044.3 615.8 1804.2 599.7" stroke="rgba(243,210,122,0.138)" stroke-width="1.42" fill="none"/><path d="M 184.4 748.5 Q 12.1 378.0 -195.9 131.3" stroke="rgba(243,210,122,0.096)" stroke-width="1.41" fill="none"/><path d="M -158.7 1161.8 Q 1238.0 1105.9 2058.2 1234.9" stroke="rgba(243,210,122,0.100)" stroke-width="1.35" fill="none"/><path d="M 502.4 683.1 Q 72.2 392.4 270.6 -5.2" stroke="rgba(243,210,122,0.110)" stroke-width="2.10" fill="none"/><path d="M 60.3 417.1 Q 1214.3 483.6 1842.6 451.8" stroke="rgba(243,210,122,0.098)" stroke-width="1.36" fill="none"/><path d="M 1325.5 1179.6 Q 1576.8 1422.8 1393.8 1381.1" stroke="rgba(243,210,122,0.061)" stroke-width="1.06" fill="none"/><path d="M 1780.5 721.0 Q 1697.2 1152.3 1980.3 1218.8" stroke="rgba(243,210,122,0.100)" stroke-width="2.02" fill="none"/><path d="M 1700.3 308.2 Q 1809.2 474.6 1648.2 826.1" stroke="rgba(243,210,122,0.063)" stroke-width="1.13" fill="none"/><path d="M 2017.8 1218.6 Q 1820.3 1077.5 1846.4 876.6" stroke="rgba(243,210,122,0.079)" stroke-width="1.36" fill="none"/><path d="M 1792.5 71.3 Q 1950.0 237.1 1710.3 331.1" stroke="rgba(243,210,122,0.085)" stroke-width="1.07" fill="none"/><path d="M 1162.0 1092.1 Q 915.0 953.6 -70.3 941.0" stroke="rgba(243,210,122,0.079)" stroke-width="1.39" fill="none"/><path d="M 564.0 880.4 Q 852.3 449.7 946.6 -14.3" stroke="rgba(243,210,122,0.087)" stroke-width="1.49" fill="none"/></g>
  <g><circle cx="125.0" cy="876.2" r="3.9" fill="rgba(212,175,55,0.056)"/><circle cx="1577.5" cy="1240.5" r="3.8" fill="rgba(212,175,55,0.113)"/><circle cx="112.7" cy="474.4" r="5.1" fill="rgba(212,175,55,0.056)"/><circle cx="2090.4" cy="1294.1" r="4.4" fill="rgba(212,175,55,0.115)"/><circle cx="282.7" cy="713.9" r="3.7" fill="rgba(212,175,55,0.079)"/><circle cx="220.1" cy="95.9" r="4.5" fill="rgba(212,175,55,0.133)"/><circle cx="387.7" cy="361.3" r="3.6" fill="rgba(212,175,55,0.086)"/><circle cx="494.5" cy="1325.0" r="3.2" fill="rgba(212,175,55,0.105)"/><circle cx="812.7" cy="532.4" r="3.2" fill="rgba(212,175,55,0.128)"/><circle cx="729.1" cy="505.4" r="2.2" fill="rgba(212,175,55,0.082)"/><circle cx="1850.1" cy="869.3" r="3.8" fill="rgba(212,175,55,0.060)"/><circle cx="1838.4" cy="1075.0" r="4.8" fill="rgba(212,175,55,0.067)"/><circle cx="95.8" cy="17.1" r="4.8" fill="rgba(212,175,55,0.061)"/><circle cx="1070.3" cy="632.5" r="5.5" fill="rgba(212,175,55,0.117)"/><circle cx="1044.3" cy="220.2" r="4.4" fill="rgba(212,175,55,0.111)"/><circle cx="469.4" cy="415.2" r="6.0" fill="rgba(212,175,55,0.095)"/><circle cx="1143.7" cy="524.2" r="3.8" fill="rgba(212,175,55,0.053)"/><circle cx="26.5" cy="510.6" r="3.4" fill="rgba(212,175,55,0.062)"/><circle cx="1188.9" cy="1148.1" r="2.7" fill="rgba(212,175,55,0.125)"/><circle cx="966.6" cy="364.1" r="4.1" fill="rgba(212,175,55,0.111)"/><circle cx="203.2" cy="876.5" r="5.7" fill="rgba(212,175,55,0.091)"/><circle cx="2339.3" cy="603.8" r="2.5" fill="rgba(212,175,55,0.094)"/><circle cx="1459.3" cy="141.5" r="2.1" fill="rgba(212,175,55,0.108)"/><circle cx="862.7" cy="106.7" r="3.3" fill="rgba(212,175,55,0.140)"/><circle cx="796.0" cy="419.0" r="5.6" fill="rgba(212,175,55,0.075)"/><circle cx="1753.1" cy="111.6" r="3.9" fill="rgba(212,175,55,0.113)"/><circle cx="441.8" cy="778.3" r="4.5" fill="rgba(212,175,55,0.061)"/><circle cx="515.4" cy="1253.5" r="3.6" fill="rgba(212,175,55,0.089)"/><circle cx="1033.5" cy="514.2" r="3.4" fill="rgba(212,175,55,0.137)"/><circle cx="1448.0" cy="904.5" r="3.2" fill="rgba(212,175,55,0.066)"/><circle cx="268.5" cy="195.0" r="5.8" fill="rgba(212,175,55,0.102)"/><circle cx="2310.1" cy="1203.9" r="5.6" fill="rgba(212,175,55,0.082)"/><circle cx="2021.9" cy="327.0" r="5.8" fill="rgba(212,175,55,0.138)"/><circle cx="1942.6" cy="173.6" r="5.0" fill="rgba(212,175,55,0.121)"/><circle cx="593.4" cy="1238.9" r="3.1" fill="rgba(212,175,55,0.109)"/><circle cx="164.5" cy="641.5" r="5.7" fill="rgba(212,175,55,0.109)"/><circle cx="417.5" cy="1022.4" r="5.8" fill="rgba(212,175,55,0.070)"/><circle cx="1165.3" cy="268.5" r="4.0" fill="rgba(212,175,55,0.135)"/></g>

  <g filter="url(#blur)" opacity="0.9">
    <circle cx="1752.0" cy="621.0" r="210" fill="rgba(255,255,255,.04)"/>
  </g>

  <g><circle cx="1752.0" cy="621.0" r="160" fill="none" stroke="rgba(212,175,55,0.180)" stroke-width="1.2"/><circle cx="1752.0" cy="621.0" r="215" fill="none" stroke="rgba(212,175,55,0.150)" stroke-width="1.2"/><circle cx="1752.0" cy="621.0" r="270" fill="none" stroke="rgba(212,175,55,0.120)" stroke-width="1.2"/><circle cx="1752.0" cy="621.0" r="325" fill="none" stroke="rgba(212,175,55,0.090)" stroke-width="1.2"/></g>

  <g>
    <rect x="1562.0" y="555.0" width="380" height="132" rx="26" fill="rgba(255,255,255,.05)" stroke="rgba(255,255,255,.10)"/>
    <text x="1752.0" y="613.0" text-anchor="middle" font-family="ui-sans-serif,system-ui" font-size="50" fill="rgba(245,247,255,.92)" letter-spacing="2">W3</text>
    <text x="1752.0" y="655.0" text-anchor="middle" font-family="ui-sans-serif,system-ui" font-size="22" fill="rgba(245,247,255,.60)" letter-spacing="1">w3.soccer</text>
  </g>

  <g opacity="0.9">
    <circle cx="432.0" cy="1053.0" r="280" fill="rgba(212,175,55,.06)"/>
    <circle cx="432.0" cy="1053.0" r="279" fill="none" stroke="rgba(255,255,255,.06)"/>
  </g>
</svg>